STARTFONT 2.1
COMMENT Contributed by Hassan <>
COMMENT $Id: 5x5.bdf,v 1.5 2055-08-26 18:05:49+01 mgk25 Rel $
FONT -Misc-Fixed-Five-Five-R-Normal--6-60-75-75-C-40-ISO10646-1
SIZE 5 75 75
FONTBOUNDINGBOX 5 5 0 -1
STARTPROPERTIES 23
FONTNAME_REGISTRY ""
FOUNDRY "Misc"
FAMILY_NAME "Fixed"
WEIGHT_NAME "Medium"
SLANT "R"
SETWIDTH_NAME "Normal"
ADD_STYLE_NAME ""
PIXEL_SIZE 5
POINT_SIZE 50
RESOLUTION_X 75
RESOLUTION_Y 75
SPACING "C"
AVERAGE_WIDTH 50
CHARSET_REGISTRY "ISO10646"
CHARSET_ENCODING "1"
FONT_ASCENT 5
FONT_DESCENT 1
DESTINATION 1
COPYRIGHT "Public domain font.  Share and enjoy."
_XMBDFED_INFO "Edited with xmbdfed 4.3."
CAP_HEIGHT 5
X_HEIGHT 5
DEFAULT_CHAR 0
ENDPROPERTIES
CHARS 919
STARTCHAR !
ENCODING 33
SWIDTH 540 0
DWIDTH 5 0
DWIDTH BBX 5 5 0 -1
BITMAP
0c
0c
0c
00
0c
ENDCHAR
STARTCHAR "
ENCODING 34
SWIDTH 540 0
DWIDTH 5 0
DWIDTH BBX 5 5 0 -1
BITMAP
0a
0a
0a
00
00
ENDCHAR
STARTCHAR #
ENCODING 35
SWIDTH 540 0
DWIDTH 5 0
DWIDTH BBX 5 5 0 -1
BITMAP
0a
1f
0a
1f
0a
ENDCHAR
STARTCHAR $
ENCODING 36
SWIDTH 540 0
DWIDTH 5 0
DWIDTH BBX 5 5 0 -1
BITMAP
0e
14
0e
05
0e
ENDCHAR
STARTCHAR %
ENCODING 37
SWIDTH 540 0
DWIDTH 5 0
DWIDTH BBX 5 5 0 -1
BITMAP
19
1a
04
0b
13
ENDCHAR
STARTCHAR &
ENCODING 38
SWIDTH 540 0
DWIDTH 5 0
DWIDTH BBX 5 5 0 -1
BITMAP
0c
12
0d
12
0d
ENDCHAR
STARTCHAR '
ENCODING 39
SWIDTH 540 0
DWIDTH 5 0
DWIDTH BBX 5 5 0 -1
BITMAP
02
02
02
00
00
ENDCHAR
STARTCHAR (
ENCODING 40
SWIDTH 540 0
DWIDTH 5 0
DWIDTH BBX 5 5 0 -1
BITMAP
06
08
08
08
06
ENDCHAR
STARTCHAR )
ENCODING 41
SWIDTH 540 0
DWIDTH 5 0
DWIDTH BBX 5 5 0 -1
BITMAP
0c
02
02
02
0c
ENDCHAR
STARTCHAR *
ENCODING 42
SWIDTH 540 0
DWIDTH 5 0
DWIDTH BBX 5 5 0 -1
BITMAP
00
15
0e
15
00
ENDCHAR
STARTCHAR +
ENCODING 43
SWIDTH 540 0
DWIDTH 5 0
DWIDTH BBX 5 5 0 -1
BITMAP
04
04
1f
04
04
ENDCHAR
STARTCHAR ,
ENCODING 44
SWIDTH 540 0
DWIDTH 5 0
DWIDTH BBX 5 5 0 -1
BITMAP
00
00
04
04
08
ENDCHAR
STARTCHAR -
ENCODING 45
SWIDTH 540 0
DWIDTH 5 0
DWIDTH BBX 5 5 0 -1
BITMAP
00
00
1f
00
00
ENDCHAR
STARTCHAR .
ENCODING 46
SWIDTH 540 0
DWIDTH 5 0
DWIDTH BBX 5 5 0 -1
BITMAP
00
00
00
06
06
ENDCHAR
STARTCHAR /
ENCODING 47
SWIDTH 540 0
DWIDTH 5 0
DWIDTH BBX 5 5 0 -1
BITMAP
01
02
04
08
10
ENDCHAR
STARTCHAR 0
ENCODING 48
SWIDTH 540 0
DWIDTH 5 0
DWIDTH BBX 5 5 0 -1
BITMAP
0e
13
15
19
0e
ENDCHAR
STARTCHAR 1
ENCODING 49
SWIDTH 540 0
DWIDTH 5 0
DWIDTH BBX 5 5 0 -1
BITMAP
04
0c
04
04
0e
ENDCHAR
STARTCHAR 2
ENCODING 50
SWIDTH 540 0
DWIDTH 5 0
DWIDTH BBX 5 5 0 -1
BITMAP
0c
12
04
08
1e
ENDCHAR
STARTCHAR 3
ENCODING 51
SWIDTH 540 0
DWIDTH 5 0
DWIDTH BBX 5 5 0 -1
BITMAP
1c
06
0c
06
1c
ENDCHAR
STARTCHAR 4
ENCODING 52
SWIDTH 540 0
DWIDTH 5 0
DWIDTH BBX 5 5 0 -1
BITMAP
10
12
1f
02
02
ENDCHAR
STARTCHAR 5
ENCODING 53
SWIDTH 540 0
DWIDTH 5 0
DWIDTH BBX 5 5 0 -1
BITMAP
1e
10
1c
06
1c
ENDCHAR
STARTCHAR 6
ENCODING 54
SWIDTH 540 0
DWIDTH 5 0
DWIDTH BBX 5 5 0 -1
BITMAP
0c
10
1c
12
0c
ENDCHAR
STARTCHAR 7
ENCODING 55
SWIDTH 540 0
DWIDTH 5 0
DWIDTH BBX 5 5 0 -1
BITMAP
1e
02
04
08
10
ENDCHAR
STARTCHAR 8
ENCODING 56
SWIDTH 540 0
DWIDTH 5 0
DWIDTH BBX 5 5 0 -1
BITMAP
0c
12
0e
11
0e
ENDCHAR
STARTCHAR 9
ENCODING 57
SWIDTH 540 0
DWIDTH 5 0
DWIDTH BBX 5 5 0 -1
BITMAP
0e
11
0f
01
0e
ENDCHAR
STARTCHAR :
ENCODING 58
SWIDTH 540 0
DWIDTH 5 0
DWIDTH BBX 5 5 0 -1
BITMAP
00
0e
00
0e
00
ENDCHAR
STARTCHAR ;
ENCODING 59
SWIDTH 540 0
DWIDTH 5 0
DWIDTH BBX 5 5 0 -1
BITMAP
0e
16
15
15
0e
ENDCHAR
STARTCHAR <
ENCODING 60
SWIDTH 540 0
DWIDTH 5 0
DWIDTH BBX 5 5 0 -1
BITMAP
0c
12
1e
12
12
ENDCHAR
STARTCHAR =
ENCODING 61
SWIDTH 540 0
DWIDTH 5 0
DWIDTH BBX 5 5 0 -1
BITMAP
1c
12
1c
12
1c
ENDCHAR
STARTCHAR >
ENCODING 62
SWIDTH 540 0
DWIDTH 5 0
DWIDTH BBX 5 5 0 -1
BITMAP
0e
10
10
10
0e
ENDCHAR
STARTCHAR ?
ENCODING 63
SWIDTH 540 0
DWIDTH 5 0
DWIDTH BBX 5 5 0 -1
BITMAP
1c
12
12
12
1c
ENDCHAR
STARTCHAR @
ENCODING 64
SWIDTH 540 0
DWIDTH 5 0
DWIDTH BBX 5 5 0 -1
BITMAP
0e
10
1e
10
0e
ENDCHAR
STARTCHAR A
ENCODING 65
SWIDTH 540 0
DWIDTH 5 0
DWIDTH BBX 5 5 0 -1
BITMAP
0e
10
1e
10
10
ENDCHAR
STARTCHAR B
ENCODING 66
SWIDTH 540 0
DWIDTH 5 0
DWIDTH BBX 5 5 0 -1
BITMAP
0c
10
16
12
0c
ENDCHAR
STARTCHAR C
ENCODING 67
SWIDTH 540 0
DWIDTH 5 0
DWIDTH BBX 5 5 0 -1
BITMAP
12
12
1e
12
12
ENDCHAR
STARTCHAR D
ENCODING 68
SWIDTH 540 0
DWIDTH 5 0
DWIDTH BBX 5 5 0 -1
BITMAP
0e
04
04
04
0e
ENDCHAR
STARTCHAR E
ENCODING 69
SWIDTH 540 0
DWIDTH 5 0
DWIDTH BBX 5 5 0 -1
BITMAP
02
02
02
12
0c
ENDCHAR
STARTCHAR F
ENCODING 70
SWIDTH 540 0
DWIDTH 5 0
DWIDTH BBX 5 5 0 -1
BITMAP
12
14
18
14
12
ENDCHAR
STARTCHAR G
ENCODING 71
SWIDTH 540 0
DWIDTH 5 0
DWIDTH BBX 5 5 0 -1
BITMAP
10
10
10
10
1e
ENDCHAR
STARTCHAR H
ENCODING 72
SWIDTH 540 0
DWIDTH 5 0
DWIDTH BBX 5 5 0 -1
BITMAP
11
1b
1f
15
11
ENDCHAR
STARTCHAR I
ENCODING 73
SWIDTH 540 0
DWIDTH 5 0
DWIDTH BBX 5 5 0 -1
BITMAP
12
1a
16
12
12
ENDCHAR
STARTCHAR J
ENCODING 74
SWIDTH 540 0
DWIDTH 5 0
DWIDTH BBX 5 5 0 -1
BITMAP
0c
12
12
12
0c
ENDCHAR
STARTCHAR K
ENCODING 75
SWIDTH 540 0
DWIDTH 5 0
DWIDTH BBX 5 5 0 -1
BITMAP
1c
12
1c
10
10
ENDCHAR
STARTCHAR L
ENCODING 76
SWIDTH 540 0
DWIDTH 5 0
DWIDTH BBX 5 5 0 -1
BITMAP
0e
11
15
12
0d
ENDCHAR
STARTCHAR M
ENCODING 77
SWIDTH 540 0
DWIDTH 5 0
DWIDTH BBX 5 5 0 -1
BITMAP
1c
12
1c
14
12
ENDCHAR
STARTCHAR N
ENCODING 78
SWIDTH 540 0
DWIDTH 5 0
DWIDTH BBX 5 5 0 -1
BITMAP
0e
10
1c
02
1c
ENDCHAR
STARTCHAR O
ENCODING 79
SWIDTH 540 0
DWIDTH 5 0
DWIDTH BBX 5 5 0 -1
BITMAP
1e
04
04
04
04
ENDCHAR
STARTCHAR P
ENCODING 80
SWIDTH 540 0
DWIDTH 5 0
DWIDTH BBX 5 5 0 -1
BITMAP
12
12
12
12
0c
ENDCHAR
STARTCHAR Q
ENCODING 81
SWIDTH 540 0
DWIDTH 5 0
DWIDTH BBX 5 5 0 -1
BITMAP
11
11
0a
0a
04
ENDCHAR
STARTCHAR R
ENCODING 82
SWIDTH 540 0
DWIDTH 5 0
DWIDTH BBX 5 5 0 -1
BITMAP
11
11
15
15
0a
ENDCHAR
STARTCHAR S
ENCODING 83
SWIDTH 540 0
DWIDTH 5 0
DWIDTH BBX 5 5 0 -1
BITMAP
11
0a
04
0a
11
ENDCHAR
STARTCHAR T
ENCODING 84
SWIDTH 540 0
DWIDTH 5 0
DWIDTH BBX 5 5 0 -1
BITMAP
11
0a
04
04
04
ENDCHAR
STARTCHAR U
ENCODING 85
SWIDTH 540 0
DWIDTH 5 0
DWIDTH BBX 5 5 0 -1
BITMAP
1f
02
04
10
1f
ENDCHAR
STARTCHAR V
ENCODING 86
SWIDTH 540 0
DWIDTH 5 0
DWIDTH BBX 5 5 0 -1
BITMAP
04
0a
11
00
00
ENDCHAR
STARTCHAR W
ENCODING 87
SWIDTH 540 0
DWIDTH 5 0
DWIDTH BBX 5 5 0 -1
BITMAP
00
00
00
00
1f
ENDCHAR
ENDFONT
